:SAMPLES-PER-SECOND 30
:FULLY-SPECIFIED
:DEGREES
326
root  53.4421 36.8231 3.75365 -160.938 79.5725 -149.05
RightUpLeg  -15.4107 -10.1607 5.81913
RightLeg  26.3066 -0.19262 -0.340884
RightFoot  2.1643 0.625082 -5.14542
RightToes  2.96859e-009 0 -3.6325e-017
Spine  9.22093 -3.35805 9.29778
Spine1  13.1457 -3.41156 5.15158
HEad  0.0426689 -0.736929 -5.30573
LeftShoulder1  -0.266418 4.21322 -31.4475
LeftArm  -7.59213 0.574908 -38.4546
LeftForeArm  43.3981 -77.8222 -65.1147
LeftHand  -0.0250962 5.18227 -4.45381
RightShoulder  -0.74175 -5.64946 27.8088
RightArm  -16.7028 -12.8064 31.476
RightForeArm  102.497 73.1548 137.307
RightHand  -0.0393296 -4.18853 -1.68706
LeftUpLeg  3.44682 2.43571 8.52813
LeftLeg  59.1158 -1.27804 -1.80579
LeftFoot  0.0840716 0.714513 -6.93508
LeftToes  3.24686e-010 -7.02549e-012 1.39809e-011
327
root  54.3004 36.9761 3.74316 -162.355 78.0575 -150.014
RightUpLeg  -13.5503 -11.9014 5.97202
RightLeg  26.667 -0.0293833 -0.261554
RightFoot  0.585457 0.571143 -5.41789
RightToes  2.96859e-009 0 -3.6325e-017
Spine  9.48313 -3.57683 9.8198
Spine1  14.6787 -3.84431 5.79619
HEad  -1.24868 -1.69216 -5.37778
LeftShoulder1  -0.201287 4.02953 -32.1223
LeftArm  -5.57564 -6.42953 -39.7675
LeftForeArm  25.2278 -74.8587 -46.3907
LeftHand  -0.0238735 5.14879 -3.98449
RightShoulder  -0.532631 -5.14328 25.7665
RightArm  -17.7313 -9.43629 32.925
RightForeArm  91.8095 75.8196 125.792
RightHand  -0.0346153 -4.13848 -1.22273
LeftUpLeg  -1.87468 1.9403 9.23938
LeftLeg  65.1452 -0.692459 -0.990496
LeftFoot  -0.512796 0.376216 -3.91491
LeftToes  3.24686e-010 -7.02549e-012 1.39809e-011
328
root  55.1138 37.2498 3.71585 -164.714 78.3654 -152.118
RightUpLeg  -11.4106 -12.4305 5.24623
RightLeg  26.004 0.373883 -0.0313349
RightFoot  -0.234213 0.536835 -5.52922
RightToes  2.96859e-009 0 -3.6325e-017
Spine  10.4253 -3.53198 10.8907
Spine1  14.3455 -2.90201 3.32929
HEad  -1.32101 -3.13325 -4.12417
LeftShoulder1  -0.110744 3.79966 -31.2569
LeftArm  -3.02363 -12.7549 -41.0031
LeftForeArm  11.2414 -70.0225 -32.752
LeftHand  -0.037454 5.47309 -4.0231
RightShoulder  -0.526869 -5.10324 26.1312
RightArm  -17.0671 -4.23457 32.7561
RightForeArm  64.6619 78.2836 98.6239
RightHand  -0.0457777 -2.96077 -1.44449
LeftUpLeg  -5.95021 2.86752 8.72034
LeftLeg  66.4694 -0.594319 -0.797442
LeftFoot  -1.43346 0.271252 -3.03706
LeftToes  3.24686e-010 -7.02549e-012 1.39809e-011
329
root  55.9379 37.5636 3.69804 -169.32 78.5148 -157.364
RightUpLeg  -10.0055 -12.8635 4.02757
RightLeg  25.0372 0.58338 0.238873
RightFoot  -1.00286 0.506924 -5.66799
RightToes  2.96859e-009 0 -3.6325e-017
Spine  9.92441 -3.50874 10.1391
Spine1  14.4639 -2.77071 2.47827
HEad  -1.0554 -3.47765 -3.61655
LeftShoulder1  0.0340098 3.41019 -30.3103
LeftArm  -0.803628 -17.8471 -42.2303
LeftForeArm  2.26472 -64.6061 -24.6182
LeftHand  -0.0167281 4.95122 -3.5656
RightShoulder  -0.399394 -4.74467 25.2256
RightArm  -16.0043 1.44254 34.2454
RightForeArm  28.0339 76.9244 61.6024
RightHand  -0.0579724 -2.11523 -1.69764
LeftUpLeg  -9.76634 3.42959 7.36074
LeftLeg  63.5577 -0.724283 -0.9271
LeftFoot  -2.40004 0.252869 -3.0515
LeftToes  3.24686e-010 -7.02549e-012 1.39809e-011
330
root  56.62 37.8897 3.67341 -169.375 79.7926 -158.602
RightUpLeg  -9.04621 -11.6814 3.58646
RightLeg  22.9943 0.51274 0.638803
RightFoot  -0.877196 0.524298 -5.78031
RightToes  2.96859e-009 0 -3.6325e-017
Spine  9.73676 -2.95959 9.54135
Spine1  13.5754 -2.2563 1.73642
HEad  -0.712463 -3.10943 -3.54912
LeftShoulder1  0.178523 3.00314 -29.4873
LeftArm  1.09252 -22.1226 -43.2612
LeftForeArm  -2.77658 -59.3447 -19.7262
LeftHand  -0.0181794 4.92298 -3.34793
RightShoulder  -0.247717 -4.2874 24.2346
RightArm  -14.1572 7.18517 35.0396
RightForeArm  4.07726 71.5003 37.904
RightHand  -0.0714681 -0.973117 -1.74175
LeftUpLeg  -12.8407 4.69811 6.60003
LeftLeg  57.0286 -1.16591 -1.44592
LeftFoot  -3.85771 0.252327 -3.51657
LeftToes  3.24686e-010 -7.02549e-012 1.39809e-011
331
root  57.2692 38.1741 3.56982 -173.217 80.8892 -163.27
RightUpLeg  -7.84754 -10.7566 2.28042
RightLeg  21.3204 0.581932 1.19202
RightFoot  -1.13743 0.483516 -5.49403
RightToes  2.96859e-009 0 -3.6325e-017
Spine  9.61787 -2.66255 8.2161
Spine1  13.4051 -2.14426 1.55695
HEad  -0.848782 -2.95282 -3.21474
LeftShoulder1  0.31111 2.61585 -28.9186
LeftArm  3.52263 -27.4963 -44.3235
LeftForeArm  -7.51143 -52.909 -15.5186
LeftHand  -0.0195725 4.77851 -2.81431
RightShoulder  -0.0916632 -3.78838 23.2934
RightArm  -12.6672 13.7035 36.4082
RightForeArm  -8.5991 63.7966 24.8377
RightHand  -0.0912415 -0.0741891 -2.0163
LeftUpLeg  -13.96 4.60872 4.96912
LeftLeg  46.8169 -1.20927 -0.989061
LeftFoot  -4.79989 0.283192 -4.4458
LeftToes  3.24686e-010 -7.02549e-012 1.39809e-011
332
root  57.8859 38.4505 3.47577 -175.116 81.8186 -166.041
RightUpLeg  -6.51526 -9.51243 1.57129
RightLeg  18.9525 0.352857 1.51074
RightFoot  -1.0411 0.455317 -5.12213
RightToes  2.96859e-009 0 -3.6325e-017
Spine  8.96325 -2.3922 7.5204
Spine1  13.9039 -1.92025 0.797944
HEad  -2.09423 -3.59329 -2.38789
LeftShoulder1  0.501326 2.04099 -28.1559
LeftArm  5.57951 -32.5778 -45.408
LeftForeArm  -11.2661 -46.7868 -12.6736
LeftHand  -0.0185423 4.77081 -3.07173
RightShoulder  0.0121939 -3.43347 22.5278
RightArm  -10.5329 20.3455 37.441
RightForeArm  -16.8688 55.0937 17.5631
RightHand  -0.0912898 2.09631 -1.60537
LeftUpLeg  -13.6313 3.27739 4.07231
LeftLeg  33.9173 -1.60156 -0.773043
LeftFoot  -4.83171 0.301391 -4.78784
LeftToes  3.24686e-010 -7.02549e-012 1.39809e-011
333
root  58.4679 38.654 3.30796 -173.41 83.112 -165.605
RightUpLeg  -5.99665 -8.55661 1.39725
RightLeg  17.0026 0.71967 1.76972
RightFoot  -0.92359 0.482261 -5.35413
RightToes  2.96859e-009 0 -3.6325e-017
Spine  7.6048 -2.20102 7.72939
Spine1  14.5517 -1.52125 -0.673302
HEad  -2.7389 -2.4744 -2.00816
LeftShoulder1  0.712647 1.38045 -27.4073
LeftArm  7.88295 -37.2384 -45.7718
LeftForeArm  -14.8182 -41.2201 -10.6698
LeftHand  -0.0242239 4.85783 -2.45039
RightShoulder  0.186101 -2.81152 21.4456
RightArm  -7.67038 26.6286 38.7662
RightForeArm  -22.5492 45.9777 12.9661
RightHand  -0.0384906 3.617 -0.731991
LeftUpLeg  -12.6911 0.395766 3.81883
LeftLeg  21.0317 -3.16653 -1.03248
LeftFoot  -2.61973 0.455571 -5.6728
LeftToes  3.24686e-010 -7.02549e-012 1.39809e-011
334
root  58.995 38.7422 3.1056 -166.218 84.7535 -158.688
RightUpLeg  -5.02467 -8.10978 1.523
RightLeg  16.1243 1.97278 2.11946
RightFoot  -1.21667 0.520372 -5.95868
RightToes  2.96859e-009 0 -3.6325e-017
Spine  7.83939 -2.10732 8.22728
Spine1  14.5472 -1.06761 -1.9035
HEad  -3.58346 -1.81166 -1.66159
LeftShoulder1  0.8553 0.922414 -26.9742
LeftArm  10.4483 -41.5075 -45.6215
LeftForeArm  -18.0718 -36.5283 -9.28772
LeftHand  -0.0376342 5.57912 -2.24325
RightShoulder  0.304627 -2.35828 20.7411
RightArm  -3.93411 33.2721 40.1588
RightForeArm  -27.7891 36.6133 9.76188
RightHand  -0.0102649 5.27357 -0.433176
LeftUpLeg  -11.1233 -0.953661 3.83985
LeftLeg  12.127 -5.81904 -0.893542
LeftFoot  1.27103 0.693308 -6.43725
LeftToes  3.24686e-010 -7.02549e-012 1.39809e-011
335
root  59.4859 38.834 2.94414 -153.339 86.603 -145.632
RightUpLeg  -3.64061 -7.64212 1.68877
RightLeg  15.2013 3.44171 2.13631
RightFoot  -1.53319 0.483088 -5.7262
RightToes  2.96859e-009 0 -3.6325e-017
Spine  8.27677 -1.80134 7.66092
Spine1  15.1038 -0.57488 -2.48925
HEad  -5.31097 -1.20142 -1.57542
LeftShoulder1  0.986409 0.477847 -26.4546
LeftArm  12.1404 -44.9088 -46.1225
LeftForeArm  -20.6857 -32.2935 -8.17429
LeftHand  -0.0357314 5.40316 -1.75511
RightShoulder  0.404142 -1.9689 20.2407
RightArm  0.89463 40.0187 41.8198
RightForeArm  -31.7938 27.4271 7.32163
RightHand  0.138642 5.98298 1.0882
LeftUpLeg  -9.77085 2.38341 3.07276
LeftLeg  8.79732 -9.88521 -0.803769
LeftFoot  5.81861 0.461214 -3.29884
LeftToes  3.24686e-010 -7.02549e-012 1.39809e-011
336
root  59.9613 38.844 2.80823 -133.948 87.6996 -126.779
RightUpLeg  -3.78832 -8.03147 1.61364
RightLeg  15.8702 5.15949 2.17595
RightFoot  -2.93692 0.331969 -4.78807
RightToes  2.96859e-009 0 -3.6325e-017
Spine  8.2504 -1.56044 7.30014
Spine1  15.4171 0.0874985 -3.98472
HEad  -6.34199 -1.23613 -0.719242
LeftShoulder1  1.17882 -0.206802 -25.577
LeftArm  13.62 -47.9124 -46.5785
LeftForeArm  -22.5767 -28.8719 -7.35359
LeftHand  -0.0408436 5.83118 -1.87202
RightShoulder  0.470427 -1.68958 19.8069
RightArm  3.84217 45.2078 43.2531
RightForeArm  -33.7405 19.57 6.16181
RightHand  0.144224 6.26641 1.10833
LeftUpLeg  -9.91091 2.84555 2.56832
LeftLeg  9.73212 -8.91534 -0.752938
LeftFoot  6.77216 -0.314109 1.74963
LeftToes  3.24686e-010 -7.02549e-012 1.39809e-011
